<?xml version="1.0" encoding="utf-8"?>
<!-- Generator: Adobe Illustrator 23.0.2, SVG Export Plug-In . SVG Version: 6.00 Build 0)  -->
<svg fill="#1D467A" version="1.1" id="Capa_1" xmlns="http://www.w3.org/2000/svg" xmlns:xlink="http://www.w3.org/1999/xlink" x="0px" y="0px"
	 viewBox="0 0 512 512" style="enable-background:new 0 0 512 512;" xml:space="preserve">
<g>
	<path class="st0" d="M256,426l193.6-193.7c13.9-13.9,36.5-13.9,50.4,0c13.9,13.9,13.9,36.5,0,50.4L281.2,501.6
		c-7,7-16.1,10.4-25.2,10.4c-9.1,0-18.2-3.5-25.2-10.4L12,282.7C-2,268.8-2,246.2,12,232.3c13.9-13.9,36.5-13.9,50.4,0L256,426z
		 M62.4,10.4C48.4-3.5,25.9-3.5,12,10.4C-2,24.4-2,46.9,12,60.8l218.9,218.9c7,7,16.1,10.4,25.2,10.4c9.1,0,18.2-3.5,25.2-10.4
		L500.1,60.8c13.9-13.9,13.9-36.5,0-50.4c-13.9-13.9-36.5-13.9-50.4,0L256,204.1L62.4,10.4z"/>
</g>
</svg>
