<?xml version="1.0" encoding="utf-8"?>
<!-- Generator: Adobe Illustrator 23.0.2, SVG Export Plug-In . SVG Version: 6.00 Build 0)  -->
<svg version="1.1" id="Capa_1" xmlns="http://www.w3.org/2000/svg" xmlns:xlink="http://www.w3.org/1999/xlink" x="0px" y="0px"
	 viewBox="0 0 512 512" style="enable-background:new 0 0 512 512;" xml:space="preserve">
<g>
	<path class="st0" d="M86,256l193.7,193.6c13.9,13.9,13.9,36.5,0,50.4c-13.9,13.9-36.5,13.9-50.4,0L10.4,281.2
		C3.5,274.2,0,265.1,0,256c0-9.1,3.5-18.2,10.4-25.2L229.3,12C243.2-2,265.8-2,279.7,12c13.9,13.9,13.9,36.5,0,50.4L86,256z
		 M501.6,62.4c13.9-13.9,13.9-36.5,0-50.4C487.6-2,465.1-2,451.2,12L232.3,230.8c-7,7-10.4,16.1-10.4,25.2c0,9.1,3.5,18.2,10.4,25.2
		l218.9,218.9c13.9,13.9,36.5,13.9,50.4,0c13.9-13.9,13.9-36.5,0-50.4L307.9,256L501.6,62.4z"/>
</g>
</svg>
