<?xml version="1.0" encoding="utf-8"?>
<!-- Generator: Adobe Illustrator 23.0.2, SVG Export Plug-In . SVG Version: 6.00 Build 0)  -->
<svg version="1.1" id="Capa_1" xmlns="http://www.w3.org/2000/svg" xmlns:xlink="http://www.w3.org/1999/xlink" x="0px" y="0px"
	 viewBox="0 0 512 512" style="enable-background:new 0 0 512 512;" xml:space="preserve">
<g>
	<path class="st0" d="M256,86L62.4,279.7c-13.9,13.9-36.5,13.9-50.4,0c-13.9-13.9-13.9-36.5,0-50.4L230.8,10.4
		c7-7,16.1-10.4,25.2-10.4c9.1,0,18.2,3.5,25.2,10.4L500,229.3c13.9,13.9,13.9,36.5,0,50.4c-13.9,13.9-36.5,13.9-50.4,0L256,86z
		 M449.6,501.6c13.9,13.9,36.5,13.9,50.4,0c13.9-13.9,13.9-36.5,0-50.4L281.2,232.3c-7-7-16.1-10.4-25.2-10.4
		c-9.1,0-18.2,3.5-25.2,10.4L11.9,451.2c-13.9,13.9-13.9,36.5,0,50.4c13.9,13.9,36.5,13.9,50.4,0L256,307.9L449.6,501.6z"/>
</g>
</svg>
