<svg id="Calque_1" data-name="Calque 1" xmlns="http://www.w3.org/2000/svg" viewBox="0 0 87.6 69.4">
  <defs>
    <style>
      .cls-1 {
        fill: #fff;
      }
    </style>
  </defs>
  <title>france</title>
  <g id="map">
    <path id="FR-75" d="M36.3,21h2.9l.8,2.6h0l1.9,2.3-5.3.1h0l-4.4-2.2Z"/>
    <path id="FR-77" d="M67.4,7.3l3.8,1.1.1,5.5,4,4.6,1.7-.6,1,2.6,1.6-1.3.6,3.5,3.2,2.2,1-.9h0l.1,2.4-3.5.3,1.7,1.2-2,2,3.1,1.3-.7,6.4,3.5-.7,1,1.9h0l-3.9,2.9.7,1.8-3.1.9,1.3,2.3-2.3.7L81.6,53h0L66.4,54.9,65,58.1l1.3,3.4L61.8,67h0l-4.9,2L56,66.6l-2.6.1.7,1.3-2,1.4H41.2l3.3-4.7-.7-2.4L40.5,61l-.8-3.5h0l2.9-4.6,3-.7-1.8-1.8-.2-7.3,3-9.1h0l1.7-4.4-.8-2.7h0L46,21.8l1.8-3-2.2-4.9h0l1.6-4.3h0L49,7.8l2.6,2.8,2.3.2,2.3-2.3L58,10.2l4.9-1.3.8,1.3L67,9.3Z"/>
    <path id="FR-78" d="M2.2,18.4,2.9,16l-2,.2L0,11.3l1.7.2.9-2.2,4.1.5h0l4.8,2.1,4.4-2,1.9,3.7,1.3-1.9,4.8,3.1,4-1.2,3.5,4.2-.2,2.7h0l-2.4,4.1,2.1,4.8h0l-3.8,1.8-.3,2.6-3.5,2.3,2.1,2.7-1.9,3.7-3.4-.2,1.8,2.2-2.3,4.2h0l-2.2,1.1-2.8-1.6L14,42.7,6.4,35.9,6.2,24.8Z"/>
    <path id="FR-91" d="M30.9,29.4l4.7,1.5h0l4.5,1.5L44.3,31l2.4,3h0l-3,9.1.2,7.3,1.8,1.8-3,.7-2.9,4.6h0l-3.1-1.1-3.5,2.1-1.8-2.8-1.6,2.8-7,.8h0l-1.5-1.5.8-5.7L20,51.8l-.2-3.2h0l2.3-4.2-1.8-2.2,3.4.2,1.9-3.7L23.5,36,27,33.7l.3-2.6Z"/>
    <path id="FR-92" d="M34.6,17.8l2.2.6L36.3,21h0l-4,2.8L36.7,26h0l-1.1,4.8h0l-4.7-1.5h0l-2.1-4.8,2.4-4.1h0Z"/>
    <path id="FR-93" d="M45.8,13.9,48,18.8l-1.8,3,1.5,5.1h0l-2.6-3-5-.2h0L39.2,21H36.3l.5-2.6-2.2-.6h0l3.5-1.5,3,1.2Z"/>
    <path id="FR-94" d="M40,23.6l5,.2,2.6,3h0l.8,2.7L46.6,34h0l-2.4-3L40,32.4l-4.5-1.5h0l1.1-4.8h0l5.3-.1Z"/>
    <path id="FR-95" d="M10.6,0l1.5.5.1,2.7L16,4.3l7-.8,3.3-2.2,3.7,3,2-1,.4,1.8L36,2.9l7.3,5,2.6-1.1,1.5,2.8h0l-1.6,4.3h0l-4.6,3.6-3-1.2-3.5,1.5h0l-3.4,2.6h0l.2-2.7L28,13.5l-4,1.2-4.8-3.1-1.3,1.9L16,9.8l-4.4,2-5-2h0Z"/>
  </g>
  <g>
    <path class="cls-1" d="M18.4712,25.9482l-.9287,1.7476h-.6094l.9741-1.7695h-1.04v-.4117h1.604Z"/>
    <path class="cls-1" d="M20.4238,27.0874a.5968.5968,0,0,1-.0581.2617.5831.5831,0,0,1-.1689.209.8355.8355,0,0,1-.2715.1377,1.2417,1.2417,0,0,1-.3672.05,1.3048,1.3048,0,0,1-.3852-.0508.7753.7753,0,0,1-.271-.1367.5335.5335,0,0,1-.1539-.2031.629.629,0,0,1-.05-.2481.4755.4755,0,0,1,.1031-.312.7782.7782,0,0,1,.3-.208v-.0088a.5966.5966,0,0,1-.2681-.227.5886.5886,0,0,1-.0762-.2974.497.497,0,0,1,.0528-.2256.5618.5618,0,0,1,.1582-.1889.7772.7772,0,0,1,.2524-.127,1.1744,1.1744,0,0,1,.3438-.0474,1.2845,1.2845,0,0,1,.3525.0435.7917.7917,0,0,1,.2466.1133.4906.4906,0,0,1,.1523.1738.4831.4831,0,0,1-.0376.501.6741.6741,0,0,1-.2758.21v.0088a.71.71,0,0,1,.3193.23A.5716.5716,0,0,1,20.4238,27.0874Zm-.5405.0234a.2618.2618,0,0,0-.0454-.164.61.61,0,0,0-.1948-.1284c-.0284-.0137-.0694-.0308-.1221-.0513s-.1006-.04-.1416-.0571a.5787.5787,0,0,0-.1016.1411.3866.3866,0,0,0-.0449.1855.3177.3177,0,0,0,.0967.2432.3572.3572,0,0,0,.2549.0908.3811.3811,0,0,0,.0976-.0137.3117.3117,0,0,0,.0972-.0429.2976.2976,0,0,0,.0757-.08A.23.23,0,0,0,19.8833,27.1108ZM19.8379,26.08a.23.23,0,0,0-.0733-.1782.2867.2867,0,0,0-.1992-.0665.2969.2969,0,0,0-.1938.06.1827.1827,0,0,0-.0742.148.2114.2114,0,0,0,.0449.1416.4071.4071,0,0,0,.1382.0986c.0273.0137.0595.0278.0971.0425s.0879.0337.15.0571a.5725.5725,0,0,0,.0835-.1445A.443.443,0,0,0,19.8379,26.08Z"/>
  </g>
  <g>
    <path class="cls-1" d="M32.6563,26.583a1.8954,1.8954,0,0,1-.0645.51,1.0755,1.0755,0,0,1-.2007.3974.93.93,0,0,1-.3491.2578,1.2847,1.2847,0,0,1-.5122.0909,1.8213,1.8213,0,0,1-.2139-.0137,1.2092,1.2092,0,0,1-.1479-.0234V27.373H31.21a.808.808,0,0,0,.1167.043.8428.8428,0,0,0,.4151-.0049.4428.4428,0,0,0,.1714-.09.5316.5316,0,0,0,.1245-.1611.7136.7136,0,0,0,.0674-.2417,1.311,1.311,0,0,1-.2178.1118.686.686,0,0,1-.2495.039.7567.7567,0,0,1-.2163-.03.5837.5837,0,0,1-.188-.0928.6151.6151,0,0,1-.1787-.2266.9446.9446,0,0,1-.0083-.6718.7261.7261,0,0,1,.4243-.417.934.934,0,0,1,.3428-.06,1.0055,1.0055,0,0,1,.3383.0532.6621.6621,0,0,1,.2535.1636.8043.8043,0,0,1,.187.3208A1.5641,1.5641,0,0,1,32.6563,26.583Zm-.542-.082a1.18,1.18,0,0,0-.03-.292.4564.4564,0,0,0-.084-.18.227.227,0,0,0-.0859-.0674.2572.2572,0,0,0-.1031-.02.243.243,0,0,0-.0942.0195.2574.2574,0,0,0-.0889.0684.3434.3434,0,0,0-.0644.1245.5859.5859,0,0,0-.0264.18.4658.4658,0,0,0,.0274.1738.257.257,0,0,0,.1806.1646.5164.5164,0,0,0,.1333.0161.5051.5051,0,0,0,.1265-.0166.7061.7061,0,0,0,.105-.0347c0-.0107,0-.0259.0024-.0464S32.1143,26.541,32.1143,26.501Z"/>
    <path class="cls-1" d="M34.6235,27.7959H33.021V27.44q.2035-.1612.3657-.3047c.1074-.0957.2027-.1861.2847-.272a1.5873,1.5873,0,0,0,.2314-.2959.5276.5276,0,0,0,.0718-.2622.2961.2961,0,0,0-.0908-.2334A.3644.3644,0,0,0,33.63,25.99a.5874.5874,0,0,0-.1577.0206,1.2,1.2,0,0,0-.15.0527.8878.8878,0,0,0-.1275.0688l-.0791.0528h-.0425v-.4761a1.574,1.574,0,0,1,.2886-.09,1.6759,1.6759,0,0,1,.3779-.0459.8749.8749,0,0,1,.5879.1728.607.607,0,0,1,.2.4863.8535.8535,0,0,1-.0908.379,1.5645,1.5645,0,0,1-.3018.3974q-.1317.13-.2563.2324c-.083.0684-.1431.1153-.18.1446h.9243Z"/>
  </g>
  <g>
    <path class="cls-1" d="M37.1841,23.2007l-.9287,1.7475H35.646l.9741-1.77H35.58v-.4116h1.604Z"/>
    <path class="cls-1" d="M39.0928,24.21a.8439.8439,0,0,1-.0581.3149.67.67,0,0,1-.1734.2505.8093.8093,0,0,1-.2719.1611,1.1424,1.1424,0,0,1-.3873.0572,1.9739,1.9739,0,0,1-.4184-.0416,1.6711,1.6711,0,0,1-.2891-.09v-.4761h.05l.0923.0528a1.02,1.02,0,0,0,.1348.0615,1.2927,1.2927,0,0,0,.1577.0508.7613.7613,0,0,0,.1777.02.835.835,0,0,0,.1831-.0215.3243.3243,0,0,0,.1582-.0766.3367.3367,0,0,0,.0689-.0982.3516.3516,0,0,0,.0249-.145.2516.2516,0,0,0-.1143-.22.4258.4258,0,0,0-.18-.064,1.5067,1.5067,0,0,0-.1817-.0137,1.4022,1.4022,0,0,0-.2334.0191c-.0762.0127-.1416.0264-.1972.041h-.0469V22.7671h1.4443v.4116h-.9272v.3633c.0293-.002.0639-.0039.1049-.0049s.0718-.0024.0943-.0024a1.259,1.259,0,0,1,.29.0317.7511.7511,0,0,1,.2359.0972.5486.5486,0,0,1,.1933.2163A.7218.7218,0,0,1,39.0928,24.21Z"/>
  </g>
  <g>
    <path class="cls-1" d="M43.1563,20.0962a1.8959,1.8959,0,0,1-.0645.51,1.0656,1.0656,0,0,1-.2007.3969.9212.9212,0,0,1-.3491.2583,1.2851,1.2851,0,0,1-.5122.09,1.8176,1.8176,0,0,1-.2139-.0132,1.1828,1.1828,0,0,1-.1479-.0235v-.4292H41.71a.7914.7914,0,0,0,.1167.044.8381.8381,0,0,0,.4151-.0054.4428.4428,0,0,0,.1714-.09.5308.5308,0,0,0,.1245-.1612.7157.7157,0,0,0,.0674-.2417,1.2677,1.2677,0,0,1-.2178.1119.686.686,0,0,1-.25.039.7533.7533,0,0,1-.2163-.03.5814.5814,0,0,1-.188-.0927.6151.6151,0,0,1-.1787-.2266.9449.9449,0,0,1-.0083-.6719.7268.7268,0,0,1,.4243-.417.9361.9361,0,0,1,.3428-.06,1.0055,1.0055,0,0,1,.3383.0532.66.66,0,0,1,.2535.1636.8043.8043,0,0,1,.187.3208A1.5632,1.5632,0,0,1,43.1563,20.0962Zm-.542-.082a1.18,1.18,0,0,0-.03-.292.4557.4557,0,0,0-.084-.18.227.227,0,0,0-.0859-.0674.2572.2572,0,0,0-.1031-.0205.243.243,0,0,0-.0942.02.2574.2574,0,0,0-.0889.0684.3434.3434,0,0,0-.0644.1245.5854.5854,0,0,0-.0264.18.4658.4658,0,0,0,.0274.1738.2565.2565,0,0,0,.1806.1645.512.512,0,0,0,.1333.0162.5051.5051,0,0,0,.1265-.0166.7061.7061,0,0,0,.105-.0347c0-.0108,0-.0259.0024-.0464S42.6143,20.0542,42.6143,20.0142Z"/>
    <path class="cls-1" d="M45.0693,20.6484a.6948.6948,0,0,1-.0595.2915.5978.5978,0,0,1-.1734.2242.8193.8193,0,0,1-.2719.1411,1.2755,1.2755,0,0,1-.38.0493,1.9577,1.9577,0,0,1-.4375-.0425,1.58,1.58,0,0,1-.2964-.0952v-.4731h.0527a1.338,1.338,0,0,0,.2818.1318.917.917,0,0,0,.2954.0557,1.1716,1.1716,0,0,0,.1723-.0137.3423.3423,0,0,0,.1558-.0611.2771.2771,0,0,0,.08-.09.3107.3107,0,0,0,.03-.1514.229.229,0,0,0-.0425-.1484.24.24,0,0,0-.1128-.0757.5551.5551,0,0,0-.1685-.0278q-.0981-.003-.1728-.0029h-.0938v-.3838h.0864a1.7745,1.7745,0,0,0,.1832-.0088.4655.4655,0,0,0,.142-.0352.2229.2229,0,0,0,.0918-.0776.2454.2454,0,0,0,.0328-.1348.1788.1788,0,0,0-.0308-.1079.2217.2217,0,0,0-.0762-.0649.3783.3783,0,0,0-.123-.0352,1.0037,1.0037,0,0,0-.12-.0088.7361.7361,0,0,0-.1641.0191,1.3022,1.3022,0,0,0-.1626.0483.9546.9546,0,0,0-.1289.061c-.0449.0245-.0781.0435-.1.0562h-.0454V19.22a1.906,1.906,0,0,1,.3037-.0928,1.72,1.72,0,0,1,.3906-.0449,1.4941,1.4941,0,0,1,.3379.0337.7911.7911,0,0,1,.2437.0982.453.453,0,0,1,.1669.1748.5091.5091,0,0,1,.0562.24.5153.5153,0,0,1-.1084.3257.482.482,0,0,1-.2832.1811v.0206a.74.74,0,0,1,.1514.0395.4633.4633,0,0,1,.1445.0908.4514.4514,0,0,1,.1094.1475A.4966.4966,0,0,1,45.0693,20.6484Z"/>
  </g>
  <g>
    <path class="cls-1" d="M29.458,9.3262a1.8993,1.8993,0,0,1-.0644.51,1.066,1.066,0,0,1-.2007.397.9238.9238,0,0,1-.3491.2583,1.2854,1.2854,0,0,1-.5123.09,1.8382,1.8382,0,0,1-.2138-.0131,1.1855,1.1855,0,0,1-.148-.0235v-.4292h.0425a.7984.7984,0,0,0,.1167.044.8377.8377,0,0,0,.415-.0054.4427.4427,0,0,0,.1714-.09.5308.5308,0,0,0,.1245-.1612.7157.7157,0,0,0,.0674-.2417,1.2732,1.2732,0,0,1-.2177.1118.6839.6839,0,0,1-.25.0391.7573.7573,0,0,1-.2163-.03.5854.5854,0,0,1-.188-.0927.6161.6161,0,0,1-.1787-.2266.9449.9449,0,0,1-.0083-.6719.7276.7276,0,0,1,.4243-.417.9365.9365,0,0,1,.3428-.06,1.0032,1.0032,0,0,1,.3384.0532.6594.6594,0,0,1,.2534.1636.802.802,0,0,1,.187.3208A1.5632,1.5632,0,0,1,29.458,9.3262Zm-.542-.0821a1.1767,1.1767,0,0,0-.03-.292.4559.4559,0,0,0-.0839-.18.2266.2266,0,0,0-.086-.0674.2563.2563,0,0,0-.103-.0205.2426.2426,0,0,0-.0942.02.2553.2553,0,0,0-.0889.0684.3434.3434,0,0,0-.0645.1245.5883.5883,0,0,0-.0263.18.4682.4682,0,0,0,.0273.1739A.2771.2771,0,0,0,28.44,9.36a.2741.2741,0,0,0,.107.0556.511.511,0,0,0,.1333.0161.4992.4992,0,0,0,.1264-.0166.6882.6882,0,0,0,.105-.0346c0-.0108,0-.0259.0025-.0464S28.916,9.2842,28.916,9.2441Z"/>
    <path class="cls-1" d="M31.3755,9.8008a.8415.8415,0,0,1-.0581.3149.67.67,0,0,1-.1734.25.8067.8067,0,0,1-.2719.1611,1.1422,1.1422,0,0,1-.3872.0572,1.982,1.982,0,0,1-.4185-.0415,1.6792,1.6792,0,0,1-.2891-.09v-.476h.05l.0923.0527a1.02,1.02,0,0,0,.1348.0615,1.2983,1.2983,0,0,0,.1577.0508.7613.7613,0,0,0,.1777.0195.8366.8366,0,0,0,.1832-.0215.3252.3252,0,0,0,.1582-.0766A.3364.3364,0,0,0,30.8,9.9648a.3516.3516,0,0,0,.0249-.145A.2516.2516,0,0,0,30.71,9.6a.4258.4258,0,0,0-.18-.064,1.5029,1.5029,0,0,0-.1817-.0136,1.4032,1.4032,0,0,0-.2334.019c-.0761.0127-.1416.0264-.1972.041h-.0469V8.3579h1.4443V8.77h-.9272v.3633c.0293-.0019.0639-.0039.105-.0049s.0717-.0024.0942-.0024a1.259,1.259,0,0,1,.29.0317.7511.7511,0,0,1,.2359.0972.5486.5486,0,0,1,.1933.2163A.7218.7218,0,0,1,31.3755,9.8008Z"/>
  </g>
  <g>
    <path class="cls-1" d="M63.5156,35.1011l-.9287,1.7475h-.6094l.9737-1.77h-1.04v-.4116h1.6045Z"/>
    <path class="cls-1" d="M65.4258,35.1011l-.9287,1.7475h-.6094l.9736-1.77h-1.04v-.4116h1.6045Z"/>
  </g>
  <g>
    <path class="cls-1" d="M42.7349,28.3374a1.8959,1.8959,0,0,1-.0645.51,1.0656,1.0656,0,0,1-.2007.3969.9212.9212,0,0,1-.3491.2583,1.2848,1.2848,0,0,1-.5122.09,1.8189,1.8189,0,0,1-.2139-.0132,1.2092,1.2092,0,0,1-.1479-.0234V29.127h.0425a.7956.7956,0,0,0,.1167.0439.8377.8377,0,0,0,.415-.0054.4428.4428,0,0,0,.1714-.09.5316.5316,0,0,0,.1245-.1611.717.717,0,0,0,.0674-.2417,1.27,1.27,0,0,1-.2178.1118.686.686,0,0,1-.2495.039.7567.7567,0,0,1-.2163-.03.5837.5837,0,0,1-.188-.0928.6151.6151,0,0,1-.1787-.2266.9449.9449,0,0,1-.0083-.6719.7263.7263,0,0,1,.4243-.4169.934.934,0,0,1,.3428-.06,1.0065,1.0065,0,0,1,.3384.0532.6617.6617,0,0,1,.2534.1636.8043.8043,0,0,1,.187.3208A1.5641,1.5641,0,0,1,42.7349,28.3374Zm-.542-.082a1.18,1.18,0,0,0-.03-.292.4564.4564,0,0,0-.084-.18.227.227,0,0,0-.0859-.0674.2568.2568,0,0,0-.1031-.0205.243.243,0,0,0-.0942.02.2584.2584,0,0,0-.0889.0684.345.345,0,0,0-.0644.1245.5854.5854,0,0,0-.0264.18.4658.4658,0,0,0,.0274.1738.257.257,0,0,0,.1806.1646.5164.5164,0,0,0,.1333.0161.5051.5051,0,0,0,.1265-.0166.7021.7021,0,0,0,.105-.0347c0-.0107.0005-.0259.0024-.0464S42.1929,28.2954,42.1929,28.2554Z"/>
    <path class="cls-1" d="M44.7271,29.042h-.2945v.5142h-.5288V29.042h-.9595v-.4072l.9419-1.2657h.5464v1.28h.2945Zm-.8233-.3926v-.7427l-.5522.7427Z"/>
  </g>
  <g>
    <path class="cls-1" d="M34.0986,43.6055a1.8993,1.8993,0,0,1-.0644.51,1.0691,1.0691,0,0,1-.2007.3975.9226.9226,0,0,1-.3491.2578,1.2848,1.2848,0,0,1-.5122.0908,1.8424,1.8424,0,0,1-.2139-.0136,1.1828,1.1828,0,0,1-.1479-.0235v-.4287h.0424a.803.803,0,0,0,.1167.044.83.83,0,0,0,.4151-.0059.4441.4441,0,0,0,.1714-.09.5308.5308,0,0,0,.1245-.1612.7149.7149,0,0,0,.0674-.2412,1.2684,1.2684,0,0,1-.2178.1113.6837.6837,0,0,1-.25.0391.7568.7568,0,0,1-.2163-.03.5834.5834,0,0,1-.188-.0927.6151.6151,0,0,1-.1787-.2266.83.83,0,0,1-.066-.3574.8393.8393,0,0,1,.0577-.3145.73.73,0,0,1,.4243-.417.936.936,0,0,1,.3427-.0595,1.0036,1.0036,0,0,1,.3384.0527.6607.6607,0,0,1,.2534.164.8023.8023,0,0,1,.1871.32A1.5665,1.5665,0,0,1,34.0986,43.6055Zm-.542-.0821a1.1848,1.1848,0,0,0-.03-.292.4607.4607,0,0,0-.084-.18.2256.2256,0,0,0-.086-.0674.2563.2563,0,0,0-.103-.02.243.243,0,0,0-.0942.02.2553.2553,0,0,0-.0889.0684.3446.3446,0,0,0-.0644.125.5815.5815,0,0,0-.0264.18.4682.4682,0,0,0,.0273.1739.277.277,0,0,0,.0738.1093.2726.2726,0,0,0,.1069.0557.5123.5123,0,0,0,.1333.0156.4789.4789,0,0,0,.1265-.0166.6438.6438,0,0,0,.1049-.0341c0-.0108.0005-.0264.0025-.0469S33.5566,43.5635,33.5566,43.5234Z"/>
    <path class="cls-1" d="M35.9692,44.8184H34.5278v-.3809h.46V43.2852h-.46v-.3565a1.5256,1.5256,0,0,0,.2007-.0127.5258.5258,0,0,0,.16-.043.2679.2679,0,0,0,.1089-.0947.2973.2973,0,0,0,.0449-.1465H35.52v1.8057h.45Z"/>
  </g>
</svg>
